HIERARCHY
ROOT Hips
{
	OFFSET 0.00000 0.00000 0.00000
	CHANNELS 6 Xposition Yposition Zposition Zrotation Yrotation Xrotation 
	JOINT LHipJoint
	{
		OFFSET 0 0 0
		CHANNELS 3 Zrotation Yrotation Xrotation
		JOINT LeftUpLeg
		{
			OFFSET 1.52977 -1.71332 0.88991
			CHANNELS 3 Zrotation Yrotation Xrotation
			JOINT LeftLeg
			{
				OFFSET 2.23949 -6.15296 0.00000
				CHANNELS 3 Zrotation Yrotation Xrotation
				JOINT LeftFoot
				{
					OFFSET 2.68396 -7.37412 0.00000
					CHANNELS 3 Zrotation Yrotation Xrotation
					JOINT LeftToeBase
					{
						OFFSET 0.20538 -0.56428 2.52710
						CHANNELS 3 Zrotation Yrotation Xrotation
						End Site
						{
							OFFSET 0.00000 -0.00000 1.29919
						}
					}
				}
			}
		}
	}
	JOINT RHipJoint
	{
		OFFSET 0 0 0
		CHANNELS 3 Zrotation Yrotation Xrotation
		JOINT RightUpLeg
		{
			OFFSET -1.45689 -1.71333 0.88991
			CHANNELS 3 Zrotation Yrotation Xrotation
			JOINT RightLeg
			{
				OFFSET -2.36700 -6.50329 0.00000
				CHANNELS 3 Zrotation Yrotation Xrotation
				JOINT RightFoot
				{
					OFFSET -2.69814 -7.41308 0.00000
					CHANNELS 3 Zrotation Yrotation Xrotation
					JOINT RightToeBase
					{
						OFFSET -0.18734 -0.51471 2.37479
						CHANNELS 3 Zrotation Yrotation Xrotation
						End Site
						{
							OFFSET -0.00000 -0.00000 1.22113
						}
					}
				}
			}
		}
	}
	JOINT LowerBack
	{
		OFFSET 0 0 0
		CHANNELS 3 Zrotation Yrotation Xrotation
		JOINT Spine
		{
			OFFSET 0.04294 2.14638 -0.31163
			CHANNELS 3 Zrotation Yrotation Xrotation
			JOINT Spine1
			{
				OFFSET -0.00400 2.17216 0.01486
				CHANNELS 3 Zrotation Yrotation Xrotation
				JOINT Neck
				{
					OFFSET 0 0 0
					CHANNELS 3 Zrotation Yrotation Xrotation
					JOINT Neck1
					{
						OFFSET 0.03869 1.76598 0.14916
						CHANNELS 3 Zrotation Yrotation Xrotation
						JOINT Head
						{
							OFFSET -0.00760 1.75513 -0.18948
							CHANNELS 3 Zrotation Yrotation Xrotation
							End Site
							{
								OFFSET -0.00601 1.82444 -0.08310
							}
						}
					}
				}
				JOINT LeftShoulder
				{
					OFFSET 0 0 0
					CHANNELS 3 Zrotation Yrotation Xrotation
					JOINT LeftArm
					{
						OFFSET 3.73696 0.92058 0.01733
						CHANNELS 3 Zrotation Yrotation Xrotation
						JOINT LeftForeArm
						{
							OFFSET 5.22771 -0.00000 0.00000
							CHANNELS 3 Zrotation Yrotation Xrotation
							JOINT LeftHand
							{
								OFFSET 3.45251 -0.00000 0.00000
								CHANNELS 3 Zrotation Yrotation Xrotation
								JOINT LeftFingerBase
								{
									OFFSET 0 0 0
									CHANNELS 3 Zrotation Yrotation Xrotation
									JOINT LeftHandIndex1
									{
										OFFSET 0.55212 -0.00000 0.00000
										CHANNELS 3 Zrotation Yrotation Xrotation
										End Site
										{
											OFFSET 0.44513 -0.00000 0.00000
										}
									}
								}
								JOINT LThumb
								{
									OFFSET 0 0 0
									CHANNELS 3 Zrotation Yrotation Xrotation
									End Site
									{
										OFFSET 0.45193 -0.00000 0.45193
									}
								}
							}
						}
					}
				}
				JOINT RightShoulder
				{
					OFFSET 0 0 0
					CHANNELS 3 Zrotation Yrotation Xrotation
					JOINT RightArm
					{
						OFFSET -3.63819 0.83094 -0.13694
						CHANNELS 3 Zrotation Yrotation Xrotation
						JOINT RightForeArm
						{
							OFFSET -5.23980 -0.00000 -0.00000
							CHANNELS 3 Zrotation Yrotation Xrotation
							JOINT RightHand
							{
								OFFSET -3.48042 -0.00000 -0.00000
								CHANNELS 3 Zrotation Yrotation Xrotation
								JOINT RightFingerBase
								{
									OFFSET 0 0 0
									CHANNELS 3 Zrotation Yrotation Xrotation
									JOINT RightHandIndex1
									{
										OFFSET -0.61871 -0.00000 0.00000
										CHANNELS 3 Zrotation Yrotation Xrotation
										End Site
										{
											OFFSET -0.49882 -0.00000 0.00000
										}
									}
								}
								JOINT RThumb
								{
									OFFSET 0 0 0
									CHANNELS 3 Zrotation Yrotation Xrotation
									End Site
									{
										OFFSET -0.50644 -0.00000 0.50644
									}
								}
							}
						}
					}
				}
			}
		}
	}
}
MOTION
Frames: 15
Frame Time: .0083333
50.0176 16.2031 -5.1864 0 0 0 0 0 0 -21 0 0 0 0 0 0 0 0 0 0 0 0 0 0 21 0 0 0 0 0 0 0 0 0 0 0 0 0 0 0 0 0 0 0 0 0 0 -16 0 0 21 0 0 11 0 0 0 -8 0 0 0 0 0 0 0 0 0 0 0 0 0 0 0 0 0 0 0 0 8 0 0 0 0 0 0 0 0 0 0 0 0 0 0 0 0 0
50.0176 16.2031 -5.1864 -50.6206 -85.8223 48.8781 0.0000 0.0000 0.0000 -15.5137 4.7891 -5.4066 1.6193 8.0234 22.7851 0.9095 -4.0752 -17.1132 0.1045 -2.0845 -5.7392 0.0000 0.0000 0.0000 23.8940 8.3843 -8.4404 -3.7409 -11.8074 35.0542 -1.8679 -4.9923 -28.0030 -0.1171 -2.2060 6.0754 3.9131 -0.8455 2.2226 0.2247 -1.1339 2.8300 -1.9522 -0.5155 1.5924 1.5218 -0.6220 -7.6485 2.4132 -1.3354 9.5380 0.4589 -0.4978 4.5484 0.0000 -0.0000 0.0000 -87.4375 2.0746 27.3884 13.8331 -22.4956 -2.7639 -0.0000 0.0000 -18.5545 20.4705 14.5280 5.3498 -7.1250 0.0000 -0.0000 -6.5836 45.3385 -0.0552 0.0000 -0.0000 0.0000 90.3065 -1.4324 24.3333 -14.4062 23.3125 -2.9870 0.0000 0.0000 2.3277 -19.6068 -9.3412 3.3091 7.1250 -0.0000 -0.0000 6.4227 -39.8056 0.8262
50.0189 16.2008 -5.1578 -52.3585 -85.9369 50.5767 0.0000 0.0000 0.0000 -15.6307 4.9232 -5.4050 1.6250 8.0370 22.8266 0.9163 -4.0566 -17.1821 0.1043 -2.0824 -5.7335 0.0000 0.0000 0.0000 23.7645 8.4513 -8.4871 -3.7733 -11.8525 35.2120 -1.8596 -4.9082 -27.9033 -0.1117 -2.1550 5.9342 3.8626 -0.8357 2.2730 0.2357 -1.1199 2.8403 -1.9121 -0.5100 1.5766 1.5099 -0.6167 -7.5396 2.3330 -1.3091 9.3923 0.4354 -0.4915 4.4720 0.0000 0.0000 0.0000 -87.4910 2.0461 27.4181 13.9027 -22.5954 -2.7906 -0.0000 0.0000 -18.5909 20.5597 14.6653 5.4244 -7.1250 0.0000 -0.0000 -6.5305 45.4935 -0.0799 0.0000 0.0000 0.0000 90.3568 -1.4532 24.1480 -14.4344 23.3523 -2.9982 0.0000 0.0000 2.2428 -19.5429 -9.2348 3.2603 7.1250 -0.0000 -0.0000 6.4622 -39.6887 0.8500
50.0217 16.1991 -5.1320 -53.6628 -86.0248 51.8742 0.0000 0.0000 0.0000 -15.7245 5.0602 -5.4448 1.6306 8.0500 22.8661 0.9178 -4.2020 -17.1814 0.0925 -1.9616 -5.3995 0.0000 0.0000 0.0000 23.6519 8.5664 -8.5746 -3.8127 -11.9070 35.4036 -1.8511 -4.9665 -27.8764 -0.0954 -1.9914 5.4820 3.8267 -0.7949 2.3122 0.2030 -1.0649 2.8670 -1.9258 -0.4825 1.5854 1.4893 -0.6396 -7.5645 2.3799 -1.3388 9.2878 0.4528 -0.5052 4.4399 -0.0000 0.0000 0.0000 -87.3990 2.0146 27.6800 14.0423 -22.7952 -2.8445 -0.0000 0.0000 -18.7736 20.6430 14.6217 5.4325 -7.1250 0.0000 -0.0000 -6.4444 45.4582 -0.0732 -0.0000 0.0000 0.0000 90.5371 -1.4015 23.6876 -14.4530 23.3787 -3.0055 0.0000 0.0000 2.2845 -19.4913 -9.1559 3.2235 7.1250 -0.0000 -0.0000 6.4951 -39.6018 0.8684
50.0253 16.1962 -5.1084 -54.6451 -86.1068 52.8455 0.0000 0.0000 0.0000 -15.8232 5.2990 -5.5548 1.6354 8.0614 22.9006 0.9167 -4.2463 -17.1660 0.1075 -2.1138 -5.8203 0.0000 0.0000 0.0000 23.5452 8.7053 -8.6497 -3.8534 -11.9628 35.6004 -1.8467 -4.9759 -27.8515 -0.0904 -1.9393 5.3378 3.7410 -0.7763 2.3770 0.1893 -1.0381 2.8675 -1.8913 -0.4712 1.5522 1.4724 -0.6528 -7.4982 2.3706 -1.3475 9.1746 0.4520 -0.5121 4.3853 -0.0000 -0.0000 0.0000 -87.4093 1.8592 27.6156 14.0241 -22.7691 -2.8374 -0.0000 0.0000 -18.6912 20.4972 14.3701 5.3006 -7.1250 0.0000 -0.0000 -6.5256 45.1762 -0.0285 -0.0000 -0.0000 0.0000 90.6848 -1.3799 23.2462 -14.4969 23.4406 -3.0230 0.0000 0.0000 2.1563 -19.3400 -9.2892 3.2426 7.1250 -0.0000 -0.0000 6.6459 -39.7294 0.8678
50.0285 16.1936 -5.0838 -55.9074 -86.2021 54.0993 0.0000 0.0000 0.0000 -15.9354 5.4886 -5.6328 1.6398 8.0716 22.9317 0.9174 -4.2870 -17.1684 0.1144 -2.1810 -6.0062 0.0000 0.0000 0.0000 23.4248 8.8439 -8.7398 -3.8967 -12.0217 35.8087 -1.8408 -4.9980 -27.8231 -0.0816 -1.8429 5.0718 3.6657 -0.7494 2.4241 0.1695 -1.0013 2.8778 -1.8692 -0.4542 1.5392 1.4594 -0.6663 -7.4607 2.3659 -1.3585 9.0722 0.4519 -0.5195 4.3407 0.0000 -0.0000 0.0000 -87.3897 1.7608 27.6711 14.0730 -22.8390 -2.8564 -0.0000 0.0000 -18.7210 20.4480 14.2329 5.2377 -7.1250 0.0000 -0.0000 -6.5420 45.0261 -0.0042 0.0000 -0.0000 0.0000 90.8332 -1.3484 22.8130 -14.5074 23.4554 -3.0271 0.0000 0.0000 2.1599 -19.3399 -9.1812 3.2053 7.1250 -0.0000 -0.0000 6.6297 -39.6163 0.8842
50.0320 16.1910 -5.0599 -57.1848 -86.3014 55.3732 0.0000 0.0000 0.0000 -16.0549 5.6780 -5.7122 1.6424 8.0777 22.9504 0.9176 -4.3122 -17.1680 0.1231 -2.2619 -6.2299 0.0000 0.0000 0.0000 23.2994 8.9930 -8.8435 -3.9431 -12.0843 36.0309 -1.8342 -5.0305 -27.7955 -0.0725 -1.7369 4.7791 3.5796 -0.7210 2.4673 0.1473 -0.9628 2.8873 -1.8438 -0.4364 1.5278 1.4464 -0.6804 -7.4291 2.3657 -1.3716 8.9831 0.4532 -0.5275 4.3023 0.0000 -0.0000 0.0000 -87.3656 1.6602 27.7284 14.1249 -22.9130 -2.8766 -0.0000 0.0000 -18.7583 20.3849 14.0840 5.1670 -7.1250 0.0000 -0.0000 -6.5690 44.8625 0.0224 0.0000 -0.0000 0.0000 90.9871 -1.3074 22.3579 -14.5093 23.4581 -3.0279 0.0000 0.0000 2.1868 -19.3808 -9.0461 3.1658 7.1250 -0.0000 -0.0000 6.5742 -39.4778 0.8992
50.0357 16.1887 -5.0364 -58.5062 -86.4033 56.6961 0.0000 0.0000 0.0000 -16.1822 5.8575 -5.7929 1.6442 8.0820 22.9635 0.9181 -4.3149 -17.1725 0.1334 -2.3538 -6.4846 0.0000 0.0000 0.0000 23.1674 9.1432 -8.9590 -3.9907 -12.1480 36.2576 -1.8274 -5.0506 -27.7595 -0.0648 -1.6420 4.5172 3.4834 -0.6954 2.5025 0.1268 -0.9286 2.8977 -1.8111 -0.4210 1.5216 1.4338 -0.6872 -7.4045 2.3602 -1.3749 8.9049 0.4533 -0.5307 4.2691 -0.0000 0.0000 0.0000 -87.3454 1.5632 27.7961 14.1892 -23.0046 -2.9016 -0.0000 0.0000 -18.8019 20.3437 14.0034 5.1269 -7.1250 0.0000 -0.0000 -6.5901 44.7729 0.0371 -0.0000 0.0000 0.0000 91.1332 -1.2547 21.9129 -14.5077 23.4559 -3.0273 0.0000 0.0000 2.2116 -19.4401 -8.9087 3.1285 7.1250 -0.0000 -0.0000 6.5028 -39.3383 0.9117
50.0397 16.1869 -5.0133 -59.8884 -86.5010 58.0849 0.0000 0.0000 0.0000 -16.3091 6.0183 -5.8685 1.6451 8.0841 22.9697 0.9188 -4.3123 -17.1798 0.1418 -2.4266 -6.6861 0.0000 0.0000 0.0000 23.0342 9.2880 -9.0891 -4.0400 -12.2134 36.4911 -1.8201 -5.0529 -27.7112 -0.0580 -1.5538 4.2740 3.3856 -0.6730 2.5297 0.1082 -0.8991 2.9092 -1.7755 -0.4078 1.5207 1.4205 -0.6912 -7.3877 2.3526 -1.3751 8.8427 0.4530 -0.5322 4.2432 -0.0000 -0.0000 0.0000 -87.3230 1.4780 27.8895 14.2709 -23.1207 -2.9336 -0.0000 0.0000 -18.8633 20.3382 13.9890 5.1202 -7.1250 0.0000 -0.0000 -6.5921 44.7571 0.0397 -0.0000 -0.0000 0.0000 91.2721 -1.1913 21.4871 -14.5007 23.4459 -3.0245 0.0000 0.0000 2.2370 -19.5316 -8.7348 3.0836 7.1250 -0.0000 -0.0000 6.3989 -39.1629 0.9247
50.0440 16.1855 -4.9902 -61.4033 -86.5910 59.6087 0.0000 0.0000 0.0000 -16.4306 6.1643 -5.9380 1.6454 8.0848 22.9718 0.9198 -4.3073 -17.1903 0.1481 -2.4799 -6.8340 0.0000 0.0000 0.0000 22.9018 9.4161 -9.2343 -4.0906 -12.2800 36.7298 -1.8108 -5.0331 -27.6380 -0.0518 -1.4687 4.0395 3.2923 -0.6538 2.5553 0.0943 -0.8741 2.9204 -1.7377 -0.3968 1.5201 1.4195 -0.6942 -7.3628 2.3242 -1.3726 8.7765 0.4438 -0.5332 4.2140 0.0000 -0.0000 0.0000 -87.3024 1.4067 28.0017 14.3667 -23.2565 -2.9714 -0.0000 0.0000 -18.9320 20.3672 14.0415 5.1469 -7.1250 0.0000 -0.0000 -6.5765 44.8157 0.0300 0.0000 -0.0000 0.0000 91.3966 -1.1176 21.0981 -14.5017 23.4473 -3.0249 0.0000 0.0000 2.2204 -19.5830 -8.6637 3.0674 7.1250 -0.0000 -0.0000 6.3445 -39.0920 0.9279
50.0487 16.1848 -4.9671 -62.9917 -86.6629 61.2070 0.0000 0.0000 0.0000 -16.5370 6.2945 -6.0027 1.6455 8.0851 22.9728 0.9209 -4.3106 -17.2004 0.1516 -2.5092 -6.9152 0.0000 0.0000 0.0000 22.7764 9.5152 -9.3941 -4.1422 -12.3472 36.9717 -1.7999 -4.9787 -27.5349 -0.0467 -1.3953 3.8372 3.2160 -0.6390 2.5776 0.0833 -0.8551 2.9348 -1.7063 -0.3885 1.5241 1.4277 -0.6974 -7.3452 2.2837 -1.3710 8.7214 0.4288 -0.5346 4.1901 0.0000 0.0000 0.0000 -87.2774 1.3365 28.1342 14.4668 -23.3981 -3.0110 -0.0000 0.0000 -19.0094 20.4183 14.1107 5.1857 -7.1250 0.0000 -0.0000 -6.5439 44.8944 0.0171 0.0000 0.0000 0.0000 91.5115 -1.0327 20.7453 -14.5016 23.4472 -3.0248 0.0000 0.0000 2.2068 -19.6291 -8.6024 3.0537 7.1250 -0.0000 -0.0000 6.2961 -39.0311 0.9302
50.0535 16.1842 -4.9439 -64.6051 -86.7133 62.8272 0.0000 0.0000 0.0000 -16.6254 6.4177 -6.0630 1.6458 8.0856 22.9744 0.9218 -4.3242 -17.2078 0.1538 -2.5269 -6.9644 0.0000 0.0000 0.0000 22.6598 9.5808 -9.5662 -4.1949 -12.4154 37.2176 -1.7858 -4.9062 -27.3999 -0.0415 -1.3149 3.6157 3.1612 -0.6309 2.6025 0.0765 -0.8446 2.9482 -1.6826 -0.3842 1.5251 1.4421 -0.6971 -7.3245 2.2349 -1.3648 8.6750 0.4101 -0.5339 4.1686 -0.0000 0.0000 0.0000 -87.2530 1.2735 28.2659 14.5634 -23.5344 -3.0495 -0.0000 0.0000 -19.0863 20.4603 14.1585 5.2144 -7.1250 0.0000 -0.0000 -6.5153 44.9497 0.0081 -0.0000 0.0000 0.0000 91.6103 -0.9461 20.4417 -14.5010 23.4464 -3.0246 0.0000 0.0000 2.1905 -19.6633 -8.5611 3.0449 7.1250 -0.0000 -0.0000 6.2610 -38.9903 0.9313
50.0587 16.1839 -4.9202 -66.2704 -86.7434 64.4915 0.0000 0.0000 0.0000 -16.6954 6.5373 -6.1128 1.6460 8.0861 22.9760 0.9225 -4.3552 -17.2115 0.1531 -2.5217 -6.9498 0.0000 0.0000 0.0000 22.5501 9.6083 -9.7486 -4.2491 -12.4847 37.4691 -1.7676 -4.8125 -27.2253 -0.0360 -1.2254 3.3692 3.1307 -0.6265 2.6343 0.0729 -0.8390 2.9675 -1.6690 -0.3820 1.5277 1.4611 -0.6964 -7.3196 2.1823 -1.3589 8.6408 0.3895 -0.5330 4.1546 0.0000 0.0000 0.0000 -87.2274 1.2052 28.4039 14.6566 -23.6656 -3.0868 -0.0000 0.0000 -19.1716 20.4973 14.1869 5.2349 -7.1250 0.0000 -0.0000 -6.4872 44.9840 0.0026 0.0000 0.0000 0.0000 91.6952 -0.8487 20.1870 -14.5099 23.4590 -3.0281 0.0000 0.0000 2.1539 -19.6570 -8.5701 3.0470 7.1250 -0.0000 -0.0000 6.2676 -38.9992 0.9309
50.0642 16.1837 -4.8962 -67.9104 -86.7566 66.1245 0.0000 0.0000 0.0000 -16.7528 6.6551 -6.1565 1.6461 8.0864 22.9768 0.9230 -4.3914 -17.2128 0.1523 -2.5150 -6.9313 0.0000 0.0000 0.0000 22.4416 9.6000 -9.9453 -4.3056 -12.5563 37.7296 -1.7454 -4.6932 -27.0092 -0.0306 -1.1292 3.1044 3.1215 -0.6278 2.6748 0.0720 -0.8404 2.9867 -1.6644 -0.3830 1.5248 1.4827 -0.6953 -7.3175 2.1244 -1.3529 8.6196 0.3665 -0.5322 4.1457 -0.0000 0.0000 0.0000 -87.2068 1.1312 28.5299 14.7381 -23.7800 -3.1196 -0.0000 0.0000 -19.2513 20.5152 14.2053 5.2464 -7.1250 0.0000 -0.0000 -6.4746 45.0056 -0.0009 -0.0000 0.0000 0.0000 91.7616 -0.7545 19.9963 -14.5376 23.4980 -3.0392 0.0000 0.0000 2.0766 -19.5961 -8.6555 3.0668 7.1250 -0.0000 -0.0000 6.3320 -39.0844 0.9272
50.0699 16.1835 -4.8718 -69.6268 -86.7611 67.8258 0.0000 0.0000 0.0000 -16.8034 6.7739 -6.1874 1.6458 8.0856 22.9743 0.9237 -4.4305 -17.2159 0.1506 -2.5009 -6.8922 0.0000 0.0000 0.0000 22.3292 9.5635 -10.1537 -4.3651 -12.6311 38.0026 -1.7182 -4.5551 -26.7474 -0.0247 -1.0148 2.7894 3.1289 -0.6298 2.7261 0.0714 -0.8422 3.0058 -1.6687 -0.3840 1.5156 1.5046 -0.6938 -7.3148 2.0696 -1.3472 8.6090 0.3446 -0.5312 4.1406 0.0000 0.0000 0.0000 -87.1904 1.0497 28.6386 14.8037 -23.8719 -3.1461 -0.0000 0.0000 -19.3191 20.5184 14.2080 5.2483 -7.1250 0.0000 -0.0000 -6.4722 45.0086 -0.0014 0.0000 0.0000 0.0000 91.8140 -0.6694 19.8616 -14.5843 23.5638 -3.0578 0.0000 0.0000 1.9660 -19.4920 -8.7961 3.0982 7.1250 -0.0000 -0.0000 6.4417 -39.2242 0.9212
